<?xml version="1.0" encoding="utf-8"?>
<!-- Generator: Adobe Illustrator 19.0.0, SVG Export Plug-In . SVG Version: 6.00 Build 0)  -->
<svg version="1.1" id="Layer_1" xmlns="http://www.w3.org/2000/svg" xmlns:xlink="http://www.w3.org/1999/xlink" x="0px" y="0px"
	 viewBox="0 0 50 70" style="enable-background:new 0 0 50 70;" xml:space="preserve">
<style type="text/css">
	.st0{fill:#D95BDC;}
	.st1{fill:#F170F2;}
	.st2{fill:#00D3D3;}
	.st3{fill:#00BCB6;}
</style>
<g id="XMLID_6_">
	<g id="XMLID_10_">
		<g id="XMLID_12_">
			<path id="XMLID_15_" class="st0" d="M39.5,23.2c0,1.4-1.1,2.5-2.5,2.5c-1.4,0-2.5-1.1-2.5-2.5c0-1.4,1.1-2.5,2.5-2.5
				C38.4,20.8,39.5,21.9,39.5,23.2z"/>
			<circle id="XMLID_14_" class="st1" cx="25.2" cy="54.4" r="2.5"/>
			<path id="XMLID_13_" class="st1" d="M15.8,23.2c0,1.4-1.1,2.5-2.5,2.5c-1.4,0-2.5-1.1-2.5-2.5c0-1.4,1.1-2.5,2.5-2.5
				C14.7,20.8,15.8,21.9,15.8,23.2z"/>
		</g>
		<path id="XMLID_11_" class="st2" d="M46.6,28.1c-3.9-1-9.7,1.2-14.5,5.8c0-0.4,0-0.9,0-1.3c0-7.9-2.9-14.6-7-16.9
			c-4,2.4-7,9.1-7,16.9c0,0.4,0,0.9,0,1.3C13.4,29.2,7.6,27,3.7,28.1c-1,4,1.3,10,6.2,15c4.6,4.6,10,6.9,14,6.4
			c-0.5-2.1-0.8-4.9-0.8-7.9c0-5.1,0.8-9.5,2-11c1.1,1.5,2,5.9,2,11c0,3.1-0.3,5.9-0.8,7.9c4,0.5,9.4-1.8,14-6.4
			C45.3,38.1,47.7,32.1,46.6,28.1z"/>
	</g>
	<g id="XMLID_7_">
		<path id="XMLID_9_" class="st0" d="M27.6,54.4c0-1.4-1.1-2.5-2.5-2.5v4.9C26.5,56.9,27.6,55.8,27.6,54.4z"/>
		<path id="XMLID_8_" class="st3" d="M46.6,28.1c-3.9-1-9.7,1.2-14.5,5.8c0-0.4,0-0.9,0-1.3c0-7.9-2.9-14.6-7-16.9v14.8
			c1.1,1.5,2,5.9,2,11c0,3.1-0.3,5.9-0.8,7.9c4,0.5,9.4-1.8,14-6.4C45.3,38.1,47.7,32.1,46.6,28.1z"/>
	</g>
</g>
</svg>
