<?xml version="1.0" encoding="utf-8"?>
<!-- Generator: Adobe Illustrator 19.0.0, SVG Export Plug-In . SVG Version: 6.00 Build 0)  -->
<svg version="1.1" id="Layer_1" xmlns="http://www.w3.org/2000/svg" xmlns:xlink="http://www.w3.org/1999/xlink" x="0px" y="0px"
	 viewBox="0 0 100 30" style="enable-background:new 0 0 100 30;" xml:space="preserve">
<style type="text/css">
	.st0{fill:#D95BDC;}
	.st1{fill:#F170F2;}
	.st2{fill:#00D3D3;}
	.st3{fill:#00BCB6;}
	.st4{fill:none;}
	.st5{fill:#6D6D6D;}
	.st6{font-family:'Montserrat-Regular';}
	.st7{font-size:6.3606px;}
	.st8{font-family:'BerkshireSwash-Regular';}
	.st9{font-size:19.0818px;}
</style>
<g id="XMLID_1_">
	<g id="XMLID_6_">
		<g id="XMLID_10_">
			<g id="XMLID_12_">
				<circle id="XMLID_15_" class="st0" cx="21" cy="7.9" r="1.5"/>
				<circle id="XMLID_14_" class="st1" cx="13.9" cy="26.5" r="1.5"/>
				<circle id="XMLID_13_" class="st1" cx="6.9" cy="7.9" r="1.5"/>
			</g>
			<path id="XMLID_11_" class="st2" d="M26.7,10.8c-2.3-0.6-5.8,0.7-8.6,3.5c0-0.3,0-0.5,0-0.8c0-4.7-1.7-8.7-4.2-10.1
				c-2.4,1.4-4.2,5.4-4.2,10.1c0,0.3,0,0.5,0,0.8c-2.9-2.8-6.3-4.1-8.6-3.5c-0.6,2.4,0.8,6,3.7,8.9c2.7,2.7,6,4.1,8.4,3.8
				c-0.3-1.2-0.5-2.9-0.5-4.7c0-3.1,0.5-5.6,1.2-6.6c0.7,0.9,1.2,3.5,1.2,6.6c0,1.8-0.2,3.5-0.5,4.7c2.4,0.3,5.6-1.1,8.4-3.8
				C25.9,16.8,27.3,13.2,26.7,10.8z"/>
		</g>
		<g id="XMLID_7_">
			<path id="XMLID_9_" class="st0" d="M15.4,26.5c0-0.8-0.7-1.5-1.5-1.5V28C14.7,28,15.4,27.3,15.4,26.5z"/>
			<path id="XMLID_8_" class="st3" d="M26.7,10.8c-2.3-0.6-5.8,0.7-8.6,3.5c0-0.3,0-0.5,0-0.8c0-4.7-1.7-8.7-4.2-10.1v8.8
				c0.7,0.9,1.2,3.5,1.2,6.6c0,1.8-0.2,3.5-0.5,4.7c2.4,0.3,5.6-1.1,8.4-3.8C25.9,16.8,27.3,13.2,26.7,10.8z"/>
		</g>
	</g>
	<g id="XMLID_3_">
		<rect id="XMLID_35_" x="35.3" y="19.8" class="st4" width="56.3" height="9.2"/>
		<text id="XMLID_16_" transform="matrix(1 0 0 1 39.9155 24.474)" class="st5 st6 st7">fashion vivify</text>
		<rect id="XMLID_31_" x="26.9" y="2.3" class="st4" width="73.2" height="15.4"/>
		<text id="XMLID_4_" transform="matrix(1 0 0 1 33.5723 16.8333)" class="st5 st8 st9">Acesilk</text>
	</g>
</g>
</svg>
